<?xml version="1.0" encoding="utf-8"?>
<!-- Generator: Adobe Illustrator 25.2.0, SVG Export Plug-In . SVG Version: 6.00 Build 0)  -->
<svg version="1.1" xmlns="http://www.w3.org/2000/svg" xmlns:xlink="http://www.w3.org/1999/xlink" x="0px" y="0px"
	 viewBox="0 0 223 30" style="enable-background:new 0 0 223 30;" xml:space="preserve">
<style type="text/css">
	.st0{fill-rule:evenodd;clip-rule:evenodd;fill:#7789C4;}
	.st1{display:none;}
	.st2{display:inline;}
	.st3{fill:#FFFFFF;}
	.st4{fill:#FF5E5B;}
	.st5{display:inline;fill:#FFFFFF;}
</style>
<g id="Background">
	<g>
		<path class="st0" d="M8,0h207c4.4,0,8,3.6,8,8v14c0,4.4-3.6,8-8,8H8c-4.4,0-8-3.6-8-8V8C0,3.6,3.6,0,8,0z"/>
	</g>
</g>
<g id="Cup" class="st1">
	<desc>Created with Sketch.</desc>
	<g id="Group" transform="translate(24.000000, 7.000000)" class="st2">
		<path id="Rectangle-2" class="st3" d="M17.4,0H19c3.1,0,5.6,2.5,5.6,5.6v0.3c0,3.1-2.5,5.6-5.6,5.6h-1.6v1.7
			c0,1.4-1.2,2.6-2.6,2.6H2.6c-1.4,0-2.6-1.2-2.6-2.6v-12C0,0.6,0.6,0,1.3,0H17.4z M17.4,3v5.6h1.5c1.5,0,2.8-1.2,2.8-2.8
			S20.4,3,18.9,3H17.4z"/>
		<path id="Path-2" class="st4" d="M8.4,5.3c0.4-1.2,1.3-1.8,2.8-1.8c2.2,0,3.1,2.8,1.9,4.6c-0.8,1.2-2.4,2.8-4.7,4.6
			c-2.4-1.9-4-3.4-4.7-4.6C2.4,6.3,3.3,3.5,5.5,3.5C7,3.5,8,4.1,8.4,5.3z"/>
	</g>
</g>
<g id="Clyde">
	<g>
		<path class="st3" d="M36.4,13.9c-0.6,0-1.1,0.6-1.1,1.2s0.5,1.2,1.1,1.2c0.6,0,1.1-0.6,1.1-1.2C37.6,14.5,37.1,13.9,36.4,13.9z
			 M40.5,13.9c-0.6,0-1.1,0.6-1.1,1.2s0.5,1.2,1.1,1.2c0.6,0,1.1-0.6,1.1-1.2S41.1,13.9,40.5,13.9z"/>
		<path class="st3" d="M45.9,4.6H31c-1.3,0-2.3,1-2.3,2.3v15c0,1.3,1,2.3,2.3,2.3h12.6L43,22.1l1.4,1.3l1.3,1.2l2.4,2.1V6.9
			C48.2,5.6,47.1,4.6,45.9,4.6z M41.6,19.1c0,0-0.4-0.5-0.7-0.9c1.5-0.4,2-1.3,2-1.3c-0.5,0.3-0.9,0.5-1.3,0.7
			C41,17.8,40.5,17.9,40,18c-1.1,0.2-2,0.1-2.9,0c-0.6-0.1-1.2-0.3-1.6-0.5c-0.3-0.1-0.5-0.2-0.8-0.4c0,0-0.1,0-0.1-0.1c0,0,0,0,0,0
			c-0.2-0.1-0.3-0.2-0.3-0.2s0.5,0.9,1.9,1.3c-0.3,0.4-0.7,0.9-0.7,0.9C33,19,32,17.4,32,17.4c0-3.6,1.6-6.5,1.6-6.5
			c1.6-1.2,3.1-1.2,3.1-1.2l0.1,0.1c-2,0.6-2.9,1.5-2.9,1.5s0.2-0.1,0.7-0.3c1.2-0.5,2.1-0.7,2.5-0.7c0.1,0,0.1,0,0.2,0
			c0.7-0.1,1.4-0.1,2.2,0c1.1,0.1,2.2,0.4,3.3,1.1c0,0-0.9-0.8-2.8-1.4l0.2-0.2c0,0,1.5,0,3.1,1.2c0,0,1.6,2.9,1.6,6.5
			C45,17.4,44.1,19,41.6,19.1z"/>
	</g>
</g>
<g id="Discord">
	<g>
		<path class="st3" d="M59.1,19.4c-0.3,0-0.5-0.1-0.6-0.2c-0.1-0.1-0.2-0.3-0.2-0.6c0-0.2,0.1-0.3,0.2-0.5c0.1-0.1,0.3-0.2,0.5-0.2
			l0.4,0c0.8-0.1,1.2-0.5,1.2-1.4v-6.3c0-0.6,0.3-0.9,0.9-0.9c0.6,0,0.9,0.3,0.9,0.9v6.3c0,0.9-0.2,1.6-0.7,2
			c-0.5,0.5-1.2,0.8-2.1,0.8L59.1,19.4z"/>
		<path class="st3" d="M67.5,19.4c-0.7,0-1.3-0.1-1.8-0.4c-0.5-0.3-0.9-0.7-1.2-1.2c-0.3-0.5-0.4-1.2-0.4-1.9c0-0.7,0.1-1.4,0.4-1.9
			c0.3-0.5,0.7-0.9,1.2-1.2c0.5-0.3,1.1-0.4,1.8-0.4c0.7,0,1.3,0.1,1.8,0.4c0.5,0.3,0.9,0.7,1.2,1.2c0.3,0.5,0.4,1.2,0.4,1.9
			c0,0.7-0.1,1.4-0.4,1.9c-0.3,0.5-0.7,1-1.2,1.2C68.8,19.3,68.2,19.4,67.5,19.4z M67.5,18.1c0.5,0,0.9-0.2,1.3-0.6s0.5-0.9,0.5-1.7
			c0-0.7-0.2-1.3-0.5-1.7s-0.7-0.6-1.3-0.6c-0.5,0-0.9,0.2-1.3,0.6s-0.5,0.9-0.5,1.7c0,0.7,0.2,1.3,0.5,1.7S67,18.1,67.5,18.1z"/>
		<path class="st3" d="M73.3,11c-0.3,0-0.6-0.1-0.8-0.2c-0.2-0.2-0.3-0.4-0.3-0.7c0-0.3,0.1-0.5,0.3-0.7c0.2-0.2,0.4-0.2,0.8-0.2
			c0.7,0,1,0.3,1,0.9C74.3,10.7,74,11,73.3,11z M73.3,19.4c-0.3,0-0.5-0.1-0.6-0.3s-0.2-0.4-0.2-0.7v-5.1c0-0.6,0.3-1,0.9-1
			c0.6,0,0.9,0.3,0.9,1v5.1c0,0.3-0.1,0.5-0.2,0.7C73.8,19.3,73.6,19.4,73.3,19.4z"/>
		<path class="st3" d="M76.9,19.4c-0.6,0-0.9-0.3-0.9-0.9v-5.3c0-0.6,0.3-0.9,0.9-0.9c0.6,0,0.9,0.3,0.9,0.9v0.3
			c0.2-0.4,0.5-0.7,0.9-0.9c0.4-0.2,0.8-0.3,1.3-0.3c1.6,0,2.4,0.9,2.4,2.8v3.4c0,0.6-0.3,0.9-0.9,0.9c-0.6,0-0.9-0.3-0.9-0.9v-3.3
			c0-0.5-0.1-0.9-0.3-1.2s-0.5-0.4-0.9-0.4c-0.5,0-0.9,0.2-1.2,0.5c-0.3,0.3-0.5,0.7-0.5,1.3v3.1C77.8,19.1,77.5,19.4,76.9,19.4z"/>
		<path class="st3" d="M91.1,19.4c-1.8,0-2.7-0.9-2.7-2.7v-3h-0.7c-0.5,0-0.7-0.2-0.7-0.7c0-0.4,0.2-0.7,0.7-0.7h0.7v-1.3
			c0-0.6,0.3-0.9,0.9-0.9c0.6,0,0.9,0.3,0.9,0.9v1.3h1.5c0.5,0,0.7,0.2,0.7,0.7c0,0.4-0.2,0.7-0.7,0.7h-1.5v2.9c0,0.4,0.1,0.8,0.3,1
			s0.5,0.3,1,0.3c0.2,0,0.3,0,0.4,0c0.1,0,0.2,0,0.3-0.1c0.1,0,0.2,0,0.3,0.1c0.1,0.1,0.1,0.2,0.1,0.5c0,0.2,0,0.4-0.1,0.5
			c-0.1,0.1-0.2,0.2-0.3,0.3c-0.1,0-0.3,0.1-0.5,0.1C91.4,19.4,91.3,19.4,91.1,19.4z"/>
		<path class="st3" d="M94.4,19.4c-0.6,0-0.9-0.3-0.9-0.9v-8.3c0-0.6,0.3-0.9,0.9-0.9c0.6,0,0.9,0.3,0.9,0.9v3.2
			c0.2-0.4,0.5-0.7,0.9-0.8c0.4-0.2,0.8-0.3,1.3-0.3c1.6,0,2.4,0.9,2.4,2.8v3.4c0,0.6-0.3,0.9-0.9,0.9c-0.6,0-0.9-0.3-0.9-0.9v-3.3
			c0-0.5-0.1-0.9-0.3-1.2s-0.5-0.4-0.9-0.4c-0.5,0-0.9,0.2-1.2,0.5c-0.3,0.3-0.5,0.7-0.5,1.3v3.1C95.3,19.1,95,19.4,94.4,19.4z"/>
		<path class="st3" d="M105.1,19.4c-0.8,0-1.4-0.1-2-0.4c-0.6-0.3-1-0.7-1.3-1.2c-0.3-0.5-0.5-1.2-0.5-1.9c0-0.7,0.1-1.3,0.4-1.9
			c0.3-0.5,0.7-0.9,1.2-1.3s1.1-0.5,1.8-0.5c1,0,1.7,0.3,2.3,0.9c0.6,0.6,0.8,1.5,0.8,2.5c0,0.3-0.2,0.5-0.7,0.5H103
			c0.1,1.2,0.8,1.8,2.1,1.8c0.2,0,0.5,0,0.8-0.1c0.3-0.1,0.6-0.2,0.9-0.3c0.2-0.1,0.4-0.2,0.6-0.1c0.2,0.1,0.3,0.2,0.4,0.3
			c0.1,0.1,0.1,0.3,0,0.5c-0.1,0.2-0.2,0.3-0.4,0.5c-0.3,0.2-0.7,0.4-1.1,0.5S105.5,19.4,105.1,19.4z M104.9,13.5
			c-0.5,0-0.9,0.2-1.2,0.5c-0.3,0.3-0.5,0.7-0.6,1.3h3.4c0-0.6-0.2-1-0.5-1.3S105.3,13.5,104.9,13.5z"/>
		<path class="st3" d="M114.2,19.3c-0.6,0-1-0.3-1-1v-8c0-0.6,0.3-1,1-1h2.7c1.7,0,2.9,0.4,3.8,1.3c0.9,0.8,1.4,2.1,1.4,3.7
			c0,1.6-0.5,2.8-1.4,3.7c-0.9,0.9-2.2,1.3-3.8,1.3H114.2z M115.1,17.8h1.8c2.3,0,3.4-1.2,3.4-3.5c0-2.3-1.1-3.4-3.4-3.4h-1.8V17.8z
			"/>
		<path class="st3" d="M124.7,11c-0.3,0-0.6-0.1-0.8-0.2c-0.2-0.2-0.3-0.4-0.3-0.7c0-0.3,0.1-0.5,0.3-0.7c0.2-0.2,0.4-0.2,0.8-0.2
			c0.7,0,1,0.3,1,0.9C125.7,10.7,125.3,11,124.7,11z M124.7,19.4c-0.3,0-0.5-0.1-0.6-0.3s-0.2-0.4-0.2-0.7v-5.1c0-0.6,0.3-1,0.9-1
			c0.6,0,0.9,0.3,0.9,1v5.1c0,0.3-0.1,0.5-0.2,0.7S124.9,19.4,124.7,19.4z"/>
		<path class="st3" d="M129.9,19.4c-0.4,0-0.8,0-1.3-0.1c-0.4-0.1-0.8-0.2-1.2-0.4c-0.2-0.1-0.3-0.2-0.4-0.4c0-0.2,0-0.3,0-0.5
			s0.2-0.2,0.3-0.3c0.1-0.1,0.3-0.1,0.5,0c0.4,0.2,0.7,0.3,1,0.4c0.3,0.1,0.6,0.1,1,0.1c0.4,0,0.8-0.1,1-0.2
			c0.2-0.2,0.3-0.4,0.3-0.6c0-0.4-0.3-0.6-0.9-0.8l-1.4-0.3c-1.2-0.2-1.8-0.8-1.8-1.8c0-0.4,0.1-0.8,0.4-1.2s0.6-0.6,1-0.8
			c0.4-0.2,0.9-0.3,1.5-0.3c0.8,0,1.6,0.2,2.2,0.5c0.2,0.1,0.3,0.2,0.3,0.4c0,0.2,0,0.3-0.1,0.5c-0.1,0.1-0.2,0.2-0.3,0.3
			c-0.1,0.1-0.3,0-0.5,0c-0.3-0.1-0.6-0.3-0.8-0.3c-0.3-0.1-0.5-0.1-0.8-0.1c-0.5,0-0.8,0.1-1,0.2c-0.2,0.2-0.3,0.4-0.3,0.6
			c0,0.4,0.3,0.7,0.8,0.8l1.4,0.3c0.6,0.1,1.1,0.3,1.4,0.6c0.3,0.3,0.5,0.7,0.5,1.2c0,0.7-0.3,1.2-0.8,1.6
			C131.5,19.2,130.7,19.4,129.9,19.4z"/>
		<path class="st3" d="M137.3,19.4c-0.7,0-1.3-0.1-1.9-0.4s-0.9-0.7-1.2-1.3s-0.4-1.2-0.4-1.9s0.1-1.4,0.4-1.9s0.7-0.9,1.2-1.2
			s1.2-0.4,1.9-0.4c0.3,0,0.6,0,1,0.1s0.7,0.2,1,0.4c0.2,0.1,0.3,0.3,0.3,0.4c0,0.2,0,0.3-0.1,0.5c-0.1,0.1-0.2,0.3-0.3,0.3
			s-0.3,0-0.5-0.1c-0.4-0.2-0.8-0.4-1.2-0.4c-0.6,0-1.1,0.2-1.4,0.6c-0.3,0.4-0.5,0.9-0.5,1.6c0,0.7,0.2,1.2,0.5,1.6
			c0.3,0.4,0.8,0.6,1.4,0.6c0.4,0,0.8-0.1,1.2-0.3c0.2-0.1,0.4-0.1,0.5-0.1s0.3,0.2,0.3,0.3c0.1,0.2,0.1,0.3,0,0.5
			c0,0.2-0.1,0.3-0.3,0.4c-0.3,0.2-0.6,0.3-1,0.4C138,19.4,137.7,19.4,137.3,19.4z"/>
		<path class="st3" d="M143.8,19.4c-0.7,0-1.3-0.1-1.8-0.4c-0.5-0.3-0.9-0.7-1.2-1.2c-0.3-0.5-0.4-1.2-0.4-1.9
			c0-0.7,0.1-1.4,0.4-1.9c0.3-0.5,0.7-0.9,1.2-1.2c0.5-0.3,1.1-0.4,1.8-0.4c0.7,0,1.3,0.1,1.8,0.4c0.5,0.3,0.9,0.7,1.2,1.2
			c0.3,0.5,0.4,1.2,0.4,1.9c0,0.7-0.1,1.4-0.4,1.9c-0.3,0.5-0.7,1-1.2,1.2C145.1,19.3,144.5,19.4,143.8,19.4z M143.8,18.1
			c0.5,0,0.9-0.2,1.3-0.6s0.5-0.9,0.5-1.7c0-0.7-0.2-1.3-0.5-1.7s-0.7-0.6-1.3-0.6c-0.5,0-0.9,0.2-1.3,0.6c-0.3,0.4-0.5,0.9-0.5,1.7
			c0,0.7,0.2,1.3,0.5,1.7C142.8,17.9,143.3,18.1,143.8,18.1z"/>
		<path class="st3" d="M149.6,19.4c-0.6,0-0.9-0.3-0.9-0.9v-5.3c0-0.6,0.3-0.9,0.9-0.9s0.9,0.3,0.9,0.9v0.4c0.3-0.8,1.1-1.3,2.2-1.3
			c0.4,0,0.6,0.2,0.7,0.7c0,0.5-0.2,0.8-0.7,0.8l-0.3,0c-1.1,0.1-1.7,0.7-1.7,1.8v2.9C150.5,19.1,150.2,19.4,149.6,19.4z"/>
		<path class="st3" d="M156.7,19.4c-0.6,0-1.1-0.1-1.6-0.4c-0.5-0.3-0.8-0.7-1.1-1.2c-0.3-0.5-0.4-1.2-0.4-1.9
			c0-0.7,0.1-1.4,0.4-1.9c0.3-0.5,0.6-0.9,1.1-1.2c0.5-0.3,1-0.4,1.6-0.4c0.5,0,0.9,0.1,1.3,0.3c0.4,0.2,0.7,0.5,0.9,0.9v-3.3
			c0-0.6,0.3-0.9,0.9-0.9c0.6,0,0.9,0.3,0.9,0.9v8.3c0,0.6-0.3,0.9-0.9,0.9c-0.6,0-0.9-0.3-0.9-0.9v-0.3c-0.2,0.4-0.5,0.7-0.9,0.9
			C157.7,19.3,157.2,19.4,156.7,19.4z M157.2,18.1c0.5,0,0.9-0.2,1.3-0.6s0.5-0.9,0.5-1.7c0-0.7-0.2-1.3-0.5-1.7s-0.7-0.6-1.3-0.6
			c-0.5,0-0.9,0.2-1.3,0.6c-0.3,0.4-0.5,0.9-0.5,1.7c0,0.7,0.2,1.3,0.5,1.7C156.3,17.9,156.7,18.1,157.2,18.1z"/>
		<path class="st3" d="M168.8,19.4c-0.4,0-0.8,0-1.3-0.1c-0.4-0.1-0.8-0.2-1.2-0.4c-0.2-0.1-0.3-0.2-0.4-0.4c0-0.2,0-0.3,0-0.5
			s0.2-0.2,0.3-0.3c0.1-0.1,0.3-0.1,0.5,0c0.4,0.2,0.7,0.3,1,0.4c0.3,0.1,0.6,0.1,1,0.1c0.4,0,0.8-0.1,1-0.2
			c0.2-0.2,0.3-0.4,0.3-0.6c0-0.4-0.3-0.6-0.9-0.8l-1.4-0.3c-1.2-0.2-1.8-0.8-1.8-1.8c0-0.4,0.1-0.8,0.4-1.2s0.6-0.6,1-0.8
			c0.4-0.2,0.9-0.3,1.5-0.3c0.8,0,1.6,0.2,2.2,0.5c0.2,0.1,0.3,0.2,0.3,0.4c0,0.2,0,0.3-0.1,0.5c-0.1,0.1-0.2,0.2-0.3,0.3
			c-0.1,0.1-0.3,0-0.5,0c-0.3-0.1-0.6-0.3-0.8-0.3c-0.3-0.1-0.5-0.1-0.8-0.1c-0.5,0-0.8,0.1-1,0.2c-0.2,0.2-0.3,0.4-0.3,0.6
			c0,0.4,0.3,0.7,0.8,0.8l1.4,0.3c0.6,0.1,1.1,0.3,1.4,0.6c0.3,0.3,0.5,0.7,0.5,1.2c0,0.7-0.3,1.2-0.8,1.6
			C170.4,19.2,169.7,19.4,168.8,19.4z"/>
		<path class="st3" d="M176.5,19.4c-0.8,0-1.4-0.1-2-0.4c-0.6-0.3-1-0.7-1.3-1.2c-0.3-0.5-0.5-1.2-0.5-1.9c0-0.7,0.1-1.3,0.4-1.9
			c0.3-0.5,0.7-0.9,1.2-1.3c0.5-0.3,1.1-0.5,1.8-0.5c1,0,1.7,0.3,2.3,0.9c0.6,0.6,0.8,1.5,0.8,2.5c0,0.3-0.2,0.5-0.7,0.5h-4.2
			c0.1,1.2,0.8,1.8,2.1,1.8c0.2,0,0.5,0,0.8-0.1c0.3-0.1,0.6-0.2,0.9-0.3c0.2-0.1,0.4-0.2,0.6-0.1c0.2,0.1,0.3,0.2,0.4,0.3
			s0.1,0.3,0,0.5c-0.1,0.2-0.2,0.3-0.4,0.5c-0.3,0.2-0.7,0.4-1.1,0.5S176.9,19.4,176.5,19.4z M176.2,13.5c-0.5,0-0.9,0.2-1.2,0.5
			s-0.5,0.7-0.6,1.3h3.4c0-0.6-0.2-1-0.5-1.3S176.7,13.5,176.2,13.5z"/>
		<path class="st3" d="M181.6,19.4c-0.6,0-0.9-0.3-0.9-0.9v-5.3c0-0.6,0.3-0.9,0.9-0.9s0.9,0.3,0.9,0.9v0.4c0.3-0.8,1.1-1.3,2.2-1.3
			c0.4,0,0.6,0.2,0.7,0.7c0,0.5-0.2,0.8-0.7,0.8l-0.3,0c-1.1,0.1-1.7,0.7-1.7,1.8v2.9C182.5,19.1,182.2,19.4,181.6,19.4z"/>
		<path class="st3" d="M189.4,19.4c-0.5,0-0.8-0.2-1-0.7l-2.2-5.2c-0.1-0.3-0.1-0.6,0-0.8s0.4-0.4,0.8-0.4c0.2,0,0.4,0,0.5,0.1
			c0.1,0.1,0.2,0.3,0.3,0.6l1.7,4.2l1.7-4.2c0.1-0.3,0.2-0.4,0.4-0.5c0.1-0.1,0.3-0.1,0.6-0.1c0.3,0,0.5,0.1,0.6,0.4s0.1,0.5,0,0.8
			l-2.3,5.2C190.2,19.2,189.9,19.4,189.4,19.4z"/>
		<path class="st3" d="M197.2,19.4c-0.8,0-1.4-0.1-2-0.4c-0.6-0.3-1-0.7-1.3-1.2c-0.3-0.5-0.5-1.2-0.5-1.9c0-0.7,0.1-1.3,0.4-1.9
			c0.3-0.5,0.7-0.9,1.2-1.3c0.5-0.3,1.1-0.5,1.8-0.5c1,0,1.7,0.3,2.3,0.9c0.6,0.6,0.8,1.5,0.8,2.5c0,0.3-0.2,0.5-0.7,0.5h-4.2
			c0.1,1.2,0.8,1.8,2.1,1.8c0.2,0,0.5,0,0.8-0.1c0.3-0.1,0.6-0.2,0.9-0.3c0.2-0.1,0.4-0.2,0.6-0.1c0.2,0.1,0.3,0.2,0.4,0.3
			s0.1,0.3,0,0.5c-0.1,0.2-0.2,0.3-0.4,0.5c-0.3,0.2-0.7,0.4-1.1,0.5S197.6,19.4,197.2,19.4z M197,13.5c-0.5,0-0.9,0.2-1.2,0.5
			s-0.5,0.7-0.6,1.3h3.4c0-0.6-0.2-1-0.5-1.3S197.5,13.5,197,13.5z"/>
		<path class="st3" d="M202.3,19.4c-0.6,0-0.9-0.3-0.9-0.9v-5.3c0-0.6,0.3-0.9,0.9-0.9s0.9,0.3,0.9,0.9v0.4c0.3-0.8,1.1-1.3,2.2-1.3
			c0.4,0,0.6,0.2,0.7,0.7c0,0.5-0.2,0.8-0.7,0.8l-0.3,0c-1.1,0.1-1.7,0.7-1.7,1.8v2.9C203.2,19.1,202.9,19.4,202.3,19.4z"/>
	</g>
</g>
<g id="Original_Ko-fi" class="st1">
	<path id="SupportmeonKo-f" class="st5" d="M69,18.9c-0.7,0-1.3-0.1-1.8-0.3c-0.5-0.2-1-0.5-1.5-0.9c-0.3-0.2-0.4-0.5-0.4-0.7
		c0-0.2,0.1-0.4,0.2-0.6s0.3-0.2,0.6-0.2c0.2,0,0.3,0.1,0.5,0.2c0.4,0.3,0.7,0.5,1.1,0.7s0.8,0.2,1.3,0.2c0.5,0,1-0.1,1.4-0.4
		c0.4-0.2,0.6-0.5,0.6-0.9c0-0.4-0.2-0.7-0.6-1c-0.4-0.2-1-0.4-1.8-0.5c-2-0.3-3.1-1.3-3.1-2.9c0-0.6,0.2-1.1,0.5-1.5
		c0.3-0.4,0.7-0.8,1.3-1s1.1-0.3,1.8-0.3c0.6,0,1.1,0.1,1.7,0.3c0.5,0.2,0.9,0.4,1.3,0.7c0.3,0.2,0.4,0.5,0.4,0.7
		c0,0.2-0.1,0.4-0.2,0.6s-0.3,0.2-0.6,0.2c-0.1,0-0.3,0-0.4-0.1c-0.2-0.2-0.6-0.4-1-0.5c-0.4-0.2-0.8-0.2-1.2-0.2
		c-0.6,0-1,0.1-1.4,0.3c-0.3,0.2-0.5,0.5-0.5,0.9c0,0.4,0.2,0.7,0.5,0.9c0.3,0.2,0.9,0.4,1.6,0.5c0.8,0.1,1.4,0.3,1.9,0.5
		s0.8,0.5,1.1,0.9s0.4,0.9,0.4,1.5c0,0.6-0.2,1.1-0.5,1.5c-0.3,0.4-0.8,0.8-1.3,1C70.2,18.8,69.6,18.9,69,18.9z M79.6,11.3
		c0.2,0,0.4,0.1,0.6,0.2s0.2,0.4,0.2,0.6v3.6c0,1-0.3,1.8-0.8,2.4c-0.6,0.6-1.3,0.9-2.4,0.9s-1.8-0.3-2.4-0.9
		c-0.6-0.6-0.8-1.4-0.8-2.4v-3.6c0-0.2,0.1-0.4,0.2-0.6c0.2-0.2,0.4-0.2,0.6-0.2s0.4,0.1,0.6,0.2s0.2,0.4,0.2,0.6v3.6
		c0,0.6,0.1,1,0.4,1.3c0.3,0.3,0.6,0.4,1.1,0.4c0.5,0,0.9-0.1,1.1-0.4c0.3-0.3,0.4-0.7,0.4-1.3v-3.6c0-0.2,0.1-0.4,0.2-0.6
		S79.4,11.3,79.6,11.3z M86.2,11.1c0.6,0,1.2,0.2,1.8,0.5c0.5,0.3,0.9,0.8,1.2,1.4c0.3,0.6,0.5,1.3,0.5,2c0,0.7-0.1,1.4-0.4,2
		s-0.7,1.1-1.2,1.4c-0.5,0.3-1.1,0.5-1.7,0.5c-0.4,0-0.9-0.1-1.3-0.3s-0.7-0.4-1-0.7v2.7c0,0.2-0.1,0.4-0.2,0.6s-0.4,0.2-0.6,0.2
		c-0.2,0-0.4-0.1-0.6-0.2c-0.2-0.2-0.2-0.4-0.2-0.6v-8.6c0-0.2,0.1-0.4,0.2-0.6s0.4-0.2,0.6-0.2c0.2,0,0.4,0.1,0.6,0.2
		s0.2,0.4,0.2,0.6v0.1c0.2-0.3,0.5-0.5,0.9-0.7C85.3,11.3,85.7,11.1,86.2,11.1z M86,17.4c0.6,0,1.1-0.2,1.5-0.7s0.6-1,0.6-1.7
		s-0.2-1.2-0.6-1.7c-0.4-0.4-0.9-0.7-1.5-0.7s-1.1,0.2-1.5,0.7c-0.4,0.4-0.6,1-0.6,1.7s0.2,1.2,0.6,1.7S85.4,17.4,86,17.4z
		 M94.9,11.1c0.6,0,1.2,0.2,1.8,0.5c0.5,0.3,0.9,0.8,1.2,1.4c0.3,0.6,0.5,1.3,0.5,2c0,0.7-0.1,1.4-0.4,2s-0.7,1.1-1.2,1.4
		c-0.5,0.3-1.1,0.5-1.7,0.5c-0.4,0-0.9-0.1-1.3-0.3s-0.7-0.4-1-0.7v2.7c0,0.2-0.1,0.4-0.2,0.6s-0.4,0.2-0.6,0.2s-0.4-0.1-0.6-0.2
		C91.1,21.2,91,21,91,20.7v-8.6c0-0.2,0.1-0.4,0.2-0.6s0.4-0.2,0.6-0.2s0.4,0.1,0.6,0.2s0.2,0.4,0.2,0.6v0.1
		c0.2-0.3,0.5-0.5,0.9-0.7C94,11.3,94.5,11.1,94.9,11.1z M94.7,17.4c0.6,0,1.1-0.2,1.5-0.7s0.6-1,0.6-1.7s-0.2-1.2-0.6-1.7
		c-0.4-0.4-0.9-0.7-1.5-0.7s-1.1,0.2-1.5,0.7c-0.4,0.4-0.6,1-0.6,1.7s0.2,1.2,0.6,1.7S94.1,17.4,94.7,17.4z M106.9,15
		c0,0.7-0.2,1.4-0.5,2c-0.3,0.6-0.8,1.1-1.4,1.4c-0.6,0.3-1.2,0.5-1.9,0.5c-0.7,0-1.4-0.2-1.9-0.5c-0.6-0.3-1-0.8-1.4-1.4
		s-0.5-1.3-0.5-2c0-0.7,0.2-1.4,0.5-2c0.3-0.6,0.8-1.1,1.4-1.4c0.6-0.3,1.2-0.5,1.9-0.5c0.7,0,1.3,0.2,1.9,0.5
		c0.6,0.3,1,0.8,1.4,1.4C106.8,13.6,106.9,14.3,106.9,15z M105.3,15c0-0.5-0.1-0.9-0.3-1.2c-0.2-0.4-0.4-0.6-0.8-0.8
		c-0.3-0.2-0.7-0.3-1.1-0.3c-0.4,0-0.7,0.1-1.1,0.3c-0.3,0.2-0.6,0.5-0.8,0.8c-0.2,0.4-0.3,0.8-0.3,1.2c0,0.5,0.1,0.9,0.3,1.2
		c0.2,0.4,0.4,0.6,0.8,0.8c0.3,0.2,0.7,0.3,1.1,0.3c0.4,0,0.7-0.1,1.1-0.3s0.6-0.5,0.8-0.8C105.2,15.9,105.3,15.5,105.3,15z
		 M112.2,11.1c0.3,0,0.5,0.1,0.7,0.2c0.2,0.2,0.3,0.3,0.3,0.6c0,0.3-0.1,0.5-0.2,0.7c-0.1,0.1-0.3,0.2-0.5,0.2c-0.1,0-0.3,0-0.5-0.1
		c0,0-0.1,0-0.2-0.1s-0.2,0-0.3,0c-0.2,0-0.5,0.1-0.7,0.2c-0.2,0.1-0.4,0.4-0.6,0.7c-0.1,0.3-0.2,0.7-0.2,1.1v3.3
		c0,0.2-0.1,0.4-0.2,0.6c-0.2,0.2-0.4,0.2-0.6,0.2s-0.4-0.1-0.6-0.2c-0.2-0.2-0.2-0.4-0.2-0.6v-5.8c0-0.2,0.1-0.4,0.2-0.6
		s0.4-0.2,0.6-0.2s0.4,0.1,0.6,0.2c0.2,0.2,0.2,0.4,0.2,0.6v0.2c0.2-0.4,0.5-0.7,0.9-0.9C111.3,11.3,111.8,11.1,112.2,11.1z
		 M118,17.2c0.1,0,0.2,0.1,0.4,0.2c0.1,0.1,0.2,0.3,0.2,0.5c0,0.3-0.1,0.5-0.4,0.6c-0.3,0.2-0.6,0.3-0.9,0.3c-0.6,0-1.1-0.1-1.5-0.4
		c-0.4-0.2-0.6-0.8-0.6-1.6V13h-0.6c-0.2,0-0.4-0.1-0.6-0.2c-0.1-0.1-0.2-0.3-0.2-0.6c0-0.2,0.1-0.4,0.2-0.5
		c0.1-0.1,0.3-0.2,0.6-0.2h0.6v-0.9c0-0.2,0.1-0.4,0.2-0.6c0.2-0.2,0.4-0.2,0.6-0.2c0.2,0,0.4,0.1,0.6,0.2c0.2,0.2,0.2,0.4,0.2,0.6
		v0.9h1c0.2,0,0.4,0.1,0.6,0.2c0.1,0.1,0.2,0.3,0.2,0.6c0,0.2-0.1,0.4-0.2,0.5c-0.1,0.1-0.3,0.2-0.6,0.2h-1v3.8
		c0,0.2,0.1,0.3,0.2,0.4s0.2,0.1,0.4,0.1c0.1,0,0.2,0,0.3-0.1C117.8,17.2,117.9,17.2,118,17.2z M132.7,11.1c0.9,0,1.6,0.3,1.9,0.8
		c0.4,0.6,0.5,1.3,0.5,2.3v3.6c0,0.2-0.1,0.4-0.2,0.6c-0.2,0.2-0.4,0.2-0.6,0.2c-0.2,0-0.4-0.1-0.6-0.2c-0.2-0.2-0.2-0.4-0.2-0.6
		v-3.6c0-0.5-0.1-0.9-0.3-1.2c-0.2-0.3-0.6-0.4-1.1-0.4c-0.5,0-0.9,0.2-1.2,0.5s-0.4,0.7-0.4,1.2v3.6c0,0.2-0.1,0.4-0.2,0.6
		c-0.2,0.2-0.4,0.2-0.6,0.2c-0.2,0-0.4-0.1-0.6-0.2c-0.2-0.2-0.2-0.4-0.2-0.6v-3.6c0-0.5-0.1-0.9-0.3-1.2c-0.2-0.3-0.6-0.4-1.1-0.4
		c-0.5,0-0.9,0.2-1.2,0.5c-0.3,0.3-0.4,0.7-0.4,1.2v3.6c0,0.2-0.1,0.4-0.2,0.6c-0.2,0.2-0.4,0.2-0.6,0.2s-0.4-0.1-0.6-0.2
		c-0.2-0.2-0.2-0.4-0.2-0.6v-5.8c0-0.2,0.1-0.4,0.2-0.6s0.4-0.2,0.6-0.2s0.4,0.1,0.6,0.2c0.2,0.2,0.2,0.4,0.2,0.6v0.2
		c0.3-0.3,0.6-0.6,1-0.9s0.8-0.4,1.3-0.4c1.2,0,1.9,0.5,2.3,1.5c0.2-0.4,0.5-0.7,1-1.1C131.6,11.3,132.1,11.1,132.7,11.1z
		 M143.7,14.9c0,0.2-0.1,0.4-0.3,0.5s-0.4,0.2-0.6,0.2h-4.6c0.1,0.6,0.4,1,0.8,1.3s0.9,0.5,1.4,0.5c0.4,0,0.7,0,0.9-0.1
		c0.2-0.1,0.4-0.1,0.5-0.2c0.1-0.1,0.2-0.1,0.3-0.2c0.2-0.1,0.3-0.1,0.5-0.1c0.2,0,0.4,0.1,0.5,0.2s0.2,0.3,0.2,0.5
		c0,0.3-0.1,0.5-0.4,0.7c-0.3,0.2-0.6,0.4-1.1,0.5s-0.9,0.2-1.3,0.2c-0.8,0-1.5-0.2-2.1-0.5c-0.6-0.3-1-0.8-1.4-1.4
		c-0.3-0.6-0.5-1.2-0.5-1.9c0-0.8,0.2-1.5,0.5-2.1c0.3-0.6,0.8-1.1,1.3-1.4c0.6-0.3,1.1-0.5,1.8-0.5c0.6,0,1.2,0.2,1.7,0.5
		c0.5,0.3,1,0.8,1.3,1.4C143.5,13.6,143.7,14.2,143.7,14.9z M140.1,12.7c-1.1,0-1.7,0.5-1.9,1.5h3.7v-0.1c0-0.4-0.2-0.7-0.6-1
		C141,12.8,140.6,12.7,140.1,12.7z M156.2,15c0,0.7-0.2,1.4-0.5,2s-0.8,1.1-1.4,1.4c-0.6,0.3-1.2,0.5-1.9,0.5
		c-0.7,0-1.4-0.2-1.9-0.5c-0.6-0.3-1-0.8-1.4-1.4s-0.5-1.3-0.5-2c0-0.7,0.2-1.4,0.5-2c0.3-0.6,0.8-1.1,1.4-1.4
		c0.6-0.3,1.2-0.5,1.9-0.5c0.7,0,1.3,0.2,1.9,0.5c0.6,0.3,1,0.8,1.4,1.4C156,13.6,156.2,14.3,156.2,15z M154.5,15
		c0-0.5-0.1-0.9-0.3-1.2s-0.4-0.6-0.8-0.8c-0.3-0.2-0.7-0.3-1.1-0.3s-0.7,0.1-1.1,0.3c-0.3,0.2-0.6,0.5-0.8,0.8
		c-0.2,0.4-0.3,0.8-0.3,1.2c0,0.5,0.1,0.9,0.3,1.2c0.2,0.4,0.4,0.6,0.8,0.8s0.7,0.3,1.1,0.3s0.7-0.1,1.1-0.3s0.6-0.5,0.8-0.8
		C154.4,15.9,154.5,15.5,154.5,15z M161.6,11.1c1,0,1.6,0.3,2,0.8c0.4,0.6,0.5,1.3,0.5,2.3v3.6c0,0.2-0.1,0.4-0.2,0.6
		c-0.2,0.2-0.4,0.2-0.6,0.2c-0.2,0-0.4-0.1-0.6-0.2c-0.2-0.2-0.2-0.4-0.2-0.6v-3.6c0-0.5-0.1-0.9-0.3-1.2c-0.2-0.3-0.6-0.4-1.1-0.4
		c-0.5,0-1,0.2-1.3,0.5c-0.3,0.3-0.5,0.7-0.5,1.2v3.6c0,0.2-0.1,0.4-0.2,0.6c-0.2,0.2-0.4,0.2-0.6,0.2c-0.2,0-0.4-0.1-0.6-0.2
		c-0.2-0.2-0.2-0.4-0.2-0.6v-5.8c0-0.2,0.1-0.4,0.2-0.6s0.4-0.2,0.6-0.2c0.2,0,0.4,0.1,0.6,0.2c0.2,0.2,0.2,0.4,0.2,0.6v0.2
		c0.3-0.3,0.6-0.6,1-0.9S161.1,11.1,161.6,11.1z M177.5,17.3c0.1,0.1,0.1,0.2,0.1,0.3c0,0.1,0.1,0.2,0.1,0.3c0,0.3-0.1,0.5-0.3,0.6
		c-0.2,0.2-0.4,0.3-0.7,0.3c-0.1,0-0.2,0-0.4-0.1s-0.2-0.1-0.3-0.2l-3-4l-1.3,1.3v2.2c0,0.3-0.1,0.5-0.2,0.6
		c-0.2,0.2-0.4,0.2-0.6,0.2c-0.3,0-0.5-0.1-0.6-0.2c-0.2-0.2-0.2-0.4-0.2-0.6V9.8c0-0.2,0.1-0.4,0.3-0.6s0.4-0.2,0.6-0.2
		c0.3,0,0.5,0.1,0.6,0.2c0.2,0.2,0.2,0.4,0.2,0.6v3.8l4.5-4.4c0.2-0.2,0.4-0.3,0.7-0.3c0.2,0,0.4,0.1,0.5,0.3
		c0.1,0.2,0.2,0.4,0.2,0.6s-0.1,0.4-0.3,0.5l-3.1,2.9L177.5,17.3z M186.2,15c0,0.7-0.2,1.4-0.5,2s-0.8,1.1-1.4,1.4
		c-0.6,0.3-1.2,0.5-1.9,0.5c-0.7,0-1.4-0.2-1.9-0.5c-0.6-0.3-1-0.8-1.4-1.4s-0.5-1.3-0.5-2c0-0.7,0.2-1.4,0.5-2
		c0.3-0.6,0.8-1.1,1.4-1.4c0.6-0.3,1.2-0.5,1.9-0.5c0.7,0,1.3,0.2,1.9,0.5c0.6,0.3,1,0.8,1.4,1.4C186.1,13.6,186.2,14.3,186.2,15z
		 M184.5,15c0-0.5-0.1-0.9-0.3-1.2s-0.4-0.6-0.8-0.8c-0.3-0.2-0.7-0.3-1.1-0.3s-0.7,0.1-1.1,0.3c-0.3,0.2-0.6,0.5-0.8,0.8
		c-0.2,0.4-0.3,0.8-0.3,1.2c0,0.5,0.1,0.9,0.3,1.2c0.2,0.4,0.4,0.6,0.8,0.8s0.7,0.3,1.1,0.3s0.7-0.1,1.1-0.3s0.6-0.5,0.8-0.8
		C184.5,15.9,184.5,15.5,184.5,15z M188.3,15.3c-0.2,0-0.4-0.1-0.6-0.2c-0.2-0.2-0.2-0.4-0.2-0.6c0-0.2,0.1-0.4,0.2-0.6
		c0.2-0.2,0.4-0.2,0.6-0.2h2.4c0.2,0,0.4,0.1,0.6,0.2c0.2,0.2,0.2,0.4,0.2,0.6c0,0.2-0.1,0.4-0.2,0.6c-0.2,0.2-0.4,0.2-0.6,0.2
		H188.3z M196.8,9.9c-0.3,0-0.5,0.1-0.7,0.3c-0.1,0.2-0.2,0.4-0.2,0.6v0.7h1.3c0.2,0,0.4,0.1,0.6,0.2c0.1,0.1,0.2,0.3,0.2,0.6
		s-0.1,0.4-0.2,0.6c-0.1,0.1-0.3,0.2-0.6,0.2h-1.3v5c0,0.2-0.1,0.4-0.2,0.6c-0.2,0.2-0.4,0.2-0.6,0.2c-0.2,0-0.4-0.1-0.6-0.2
		c-0.2-0.2-0.2-0.4-0.2-0.6v-5h-0.8c-0.2,0-0.4-0.1-0.6-0.2c-0.1-0.1-0.2-0.3-0.2-0.6s0.1-0.4,0.2-0.6c0.1-0.1,0.3-0.2,0.6-0.2h0.8
		v-0.6c0-0.7,0.2-1.3,0.7-1.7c0.5-0.4,1.2-0.7,2.1-0.7c0.3,0,0.6,0.1,0.9,0.2c0.3,0.1,0.4,0.4,0.4,0.6c0,0.2-0.1,0.4-0.2,0.5
		c-0.1,0.1-0.3,0.2-0.5,0.2c0,0-0.1,0-0.1,0c-0.1,0-0.1,0-0.2,0C197.1,9.9,196.9,9.9,196.8,9.9z M200.6,17.9c0,0.2-0.1,0.4-0.2,0.6
		c-0.2,0.2-0.4,0.2-0.6,0.2c-0.2,0-0.4-0.1-0.6-0.2c-0.2-0.2-0.2-0.4-0.2-0.6v-5.8c0-0.2,0.1-0.4,0.2-0.6c0.2-0.2,0.4-0.2,0.6-0.2
		c0.2,0,0.4,0.1,0.6,0.2c0.2,0.2,0.2,0.4,0.2,0.6V17.9z M199.7,10.4c-0.3,0-0.5-0.1-0.7-0.2c-0.1-0.1-0.2-0.3-0.2-0.5V9.4
		c0-0.3,0.1-0.4,0.2-0.5s0.4-0.2,0.7-0.2c0.3,0,0.6,0.1,0.7,0.2c0.1,0.1,0.2,0.3,0.2,0.5v0.3c0,0.3-0.1,0.5-0.2,0.6
		C200.3,10.3,200.1,10.4,199.7,10.4z"/>
</g>
</svg>
